<?xml version="1.0" standalone="no"?>
<!DOCTYPE svg PUBLIC "-//W3C//DTD SVG 20010904//EN"
 "http://www.w3.org/TR/2001/REC-SVG-20010904/DTD/svg10.dtd">
<svg version="1.0" xmlns="http://www.w3.org/2000/svg"
 width="593.000000pt" height="593.000000pt" viewBox="0 0 593.000000 593.000000"
 preserveAspectRatio="xMidYMid meet">
<metadata>
Created by potrace 1.11, written by Peter Selinger 2001-2013
</metadata>
<g transform="translate(0.000000,593.000000) scale(0.100000,-0.100000)"
fill="#000000" stroke="none">
<path d="M2230 5735 l0 -185 -370 0 -370 0 0 -185 0 -185 -185 0 -185 0 0
-370 0 -370 -185 0 -185 0 0 -1480 0 -1480 185 0 185 0 0 -370 0 -370 185 0
185 0 0 -185 0 -185 370 0 370 0 0 -185 0 -185 740 0 740 0 0 185 0 185 370 0
370 0 0 185 0 185 185 0 185 0 0 370 0 370 185 0 185 0 0 1480 0 1480 -185 0
-185 0 0 370 0 370 -185 0 -185 0 0 185 0 185 -370 0 -370 0 0 185 0 185 -740
0 -740 0 0 -185z m1480 -370 l0 -185 370 0 370 0 0 -370 0 -370 185 0 185 0 0
-1480 0 -1480 -185 0 -185 0 0 -370 0 -370 -370 0 -370 0 0 -185 0 -185 -740
0 -740 0 0 185 0 185 -370 0 -370 0 0 370 0 370 -185 0 -185 0 0 1480 0 1480
185 0 185 0 0 370 0 370 370 0 370 0 0 185 0 185 740 0 740 0 0 -185z"/>
<path d="M3340 2960 l0 -1480 -370 0 -370 0 0 -185 0 -185 370 0 370 0 0 185
0 185 185 0 185 0 0 1480 0 1480 -185 0 -185 0 0 -1480z"/>
</g>
</svg>
